<svg width="32" height="33" viewBox="0 0 32 33" fill="none" xmlns="http://www.w3.org/2000/svg">
<g clip-path="url(#clip0_66_118)">
<mask id="mask0_66_118" style="mask-type:alpha" maskUnits="userSpaceOnUse" x="0" y="0" width="32" height="33">
<path d="M32 16.5C32 7.66344 24.8366 0.5 16 0.5C7.16344 0.5 0 7.66344 0 16.5C0 25.3366 7.16344 32.5 16 32.5C24.8366 32.5 32 25.3366 32 16.5Z" fill="white"/>
</mask>
<g mask="url(#mask0_66_118)">
<path d="M32 0.5H0V32.5H32V0.5Z" fill="#064061"/>
<path d="M16.1637 5.14151C7.43592 6.52385 1.48128 14.7197 2.86363 23.4475C4.24597 32.1752 12.4418 38.1299 21.1696 36.7475C29.8974 35.3652 35.852 27.1693 34.4696 18.4416C33.0873 9.71381 24.8914 3.75917 16.1637 5.14151Z" fill="#98DAFF"/>
<path d="M7.1272 18.3552C7.14263 19.2391 7.6256 20.0787 8.46988 20.6892C9.31416 21.2997 10.4506 21.6311 11.6291 21.6105C12.8077 21.5899 13.9319 21.219 14.7543 20.5795C15.5768 19.9399 16.0302 19.084 16.0147 18.2001" fill="#064061"/>
<path d="M8.39833 14.7769C8.38976 14.286 8.08438 13.8933 7.71625 13.8997C7.34811 13.9062 7.05663 14.3093 7.0652 14.8001C7.07376 15.291 7.37914 15.6837 7.74727 15.6772C8.11541 15.6708 8.4069 15.2677 8.39833 14.7769Z" fill="#064061"/>
<path d="M15.5083 14.6528C15.4997 14.162 15.1944 13.7693 14.8262 13.7757C14.4581 13.7821 14.1666 14.1853 14.1752 14.6761C14.1837 15.1669 14.4891 15.5596 14.8573 15.5532C15.2254 15.5468 15.5169 15.1437 15.5083 14.6528Z" fill="#064061"/>
</g>
</g>
<defs>
<clipPath id="clip0_66_118">
<rect width="32" height="32" fill="white" transform="translate(0 0.5)"/>
</clipPath>
</defs>
</svg>
