<svg width="48" height="48" viewBox="0 0 48 48" fill="none" xmlns="http://www.w3.org/2000/svg">
<g clip-path="url(#clip0_66_239)">
<mask id="mask0_66_239" style="mask-type:alpha" maskUnits="userSpaceOnUse" x="0" y="0" width="48" height="48">
<path d="M48 24C48 10.7452 37.2548 0 24 0C10.7452 0 0 10.7452 0 24C0 37.2548 10.7452 48 24 48C37.2548 48 48 37.2548 48 24Z" fill="white"/>
</mask>
<g mask="url(#mask0_66_239)">
<path d="M48 0H0V48H48V0Z" fill="#45AFEA"/>
<path d="M8.46201 25.9156L33.3307 46.0538C36.7643 48.8343 41.8019 48.3049 44.5824 44.8712L64.7207 20.0025C67.5012 16.5689 66.9717 11.5313 63.5381 8.75081L38.6694 -11.3874C35.2357 -14.1679 30.1982 -13.6385 27.4177 -10.2048L7.27941 14.6638C4.4989 18.0975 5.02837 23.1351 8.46201 25.9156Z" fill="#064061"/>
<path d="M25.8407 19.3577C28.266 21.0917 30.8998 21.5089 33.7422 20.6091" stroke="white" stroke-width="2.22222" stroke-linecap="round"/>
<path d="M22.0657 13.36C22.1809 12.6327 21.8321 11.9731 21.2866 11.8867C20.7412 11.8003 20.2056 12.3198 20.0904 13.0471C19.9752 13.7745 20.324 14.4341 20.8695 14.5205C21.415 14.6069 21.9506 14.0873 22.0657 13.36Z" fill="white"/>
<path d="M40.5026 16.2802C40.6178 15.5529 40.269 14.8932 39.7235 14.8068C39.178 14.7204 38.6425 15.24 38.5273 15.9673C38.4121 16.6946 38.7609 17.3543 39.3064 17.4407C39.8519 17.5271 40.3874 17.0075 40.5026 16.2802Z" fill="white"/>
</g>
</g>
<defs>
<clipPath id="clip0_66_239">
<rect width="48" height="48" fill="white"/>
</clipPath>
</defs>
</svg>
