<svg width="48" height="48" viewBox="0 0 48 48" fill="none" xmlns="http://www.w3.org/2000/svg">
<g clip-path="url(#clip0_66_225)">
<mask id="mask0_66_225" style="mask-type:alpha" maskUnits="userSpaceOnUse" x="0" y="0" width="48" height="48">
<path d="M48 24C48 10.7452 37.2548 0 24 0C10.7452 0 0 10.7452 0 24C0 37.2548 10.7452 48 24 48C37.2548 48 48 37.2548 48 24Z" fill="white"/>
</mask>
<g mask="url(#mask0_66_225)">
<path d="M48 0H0V48H48V0Z" fill="#45AFEA"/>
<path d="M57.2174 21.7382C52.2306 8.03721 37.0812 0.972917 23.3802 5.95968C9.67913 10.9464 2.61483 26.0959 7.6016 39.7969C12.5884 53.4979 27.7378 60.5622 41.4388 55.5754C55.1398 50.5887 62.2041 35.4392 57.2174 21.7382Z" fill="#98DAFF"/>
<path d="M14.6667 22.6665C17.3334 23.9998 20.0001 23.9998 22.6667 22.6665" stroke="#064061" stroke-width="2.22222" stroke-linecap="round"/>
<path d="M15.3334 15.9998C15.3334 15.2635 14.8857 14.6665 14.3334 14.6665C13.7811 14.6665 13.3334 15.2635 13.3334 15.9998C13.3334 16.7362 13.7811 17.3332 14.3334 17.3332C14.8857 17.3332 15.3334 16.7362 15.3334 15.9998Z" fill="#064061"/>
<path d="M23.3334 15.9998C23.3334 15.2635 22.8857 14.6665 22.3334 14.6665C21.7811 14.6665 21.3334 15.2635 21.3334 15.9998C21.3334 16.7362 21.7811 17.3332 22.3334 17.3332C22.8857 17.3332 23.3334 16.7362 23.3334 15.9998Z" fill="#064061"/>
</g>
</g>
<defs>
<clipPath id="clip0_66_225">
<rect width="48" height="48" fill="white"/>
</clipPath>
</defs>
</svg>
