<svg width="32" height="32" viewBox="0 0 32 32" fill="none" xmlns="http://www.w3.org/2000/svg">
<path d="M25.7334 10.56V17.4267C25.7334 21.5333 23.3867 23.2933 19.8667 23.2933H8.14669C7.54669 23.2933 6.97336 23.24 6.44002 23.12C6.10669 23.0667 5.7867 22.9734 5.49337 22.8667C3.49337 22.12 2.28003 20.3867 2.28003 17.4267V10.56C2.28003 6.45331 4.62669 4.69336 8.14669 4.69336H19.8667C22.8534 4.69336 25 5.96002 25.5734 8.85335C25.6667 9.38669 25.7334 9.93331 25.7334 10.56Z" stroke="#4EB7F2" stroke-width="1.5" stroke-miterlimit="10" stroke-linecap="round" stroke-linejoin="round"/>
<path d="M29.7349 14.5601V21.4268C29.7349 25.5335 27.3882 27.2935 23.8682 27.2935H12.1482C11.1615 27.2935 10.2682 27.1602 9.49487 26.8669C7.90821 26.2802 6.8282 25.0669 6.44153 23.1202C6.97486 23.2402 7.54819 23.2935 8.14819 23.2935H19.8682C23.3882 23.2935 25.7349 21.5335 25.7349 17.4268V10.5601C25.7349 9.93347 25.6815 9.37352 25.5749 8.85352C28.1082 9.38685 29.7349 11.1735 29.7349 14.5601Z" stroke="#4EB7F2" stroke-width="1.5" stroke-miterlimit="10" stroke-linecap="round" stroke-linejoin="round"/>
<path d="M13.9979 17.5198C15.942 17.5198 17.5179 15.9438 17.5179 13.9998C17.5179 12.0557 15.942 10.4797 13.9979 10.4797C12.0539 10.4797 10.4779 12.0557 10.4779 13.9998C10.4779 15.9438 12.0539 17.5198 13.9979 17.5198Z" stroke="#4EB7F2" stroke-width="1.5" stroke-miterlimit="10" stroke-linecap="round" stroke-linejoin="round"/>
<path d="M6.37341 11.0667V16.9333" stroke="#4EB7F2" stroke-width="1.5" stroke-miterlimit="10" stroke-linecap="round" stroke-linejoin="round"/>
<path d="M21.629 11.0671V16.9338" stroke="#4EB7F2" stroke-width="1.5" stroke-miterlimit="10" stroke-linecap="round" stroke-linejoin="round"/>
</svg>
